<svg width="42" height="54" viewBox="0 0 42 54" fill="none" xmlns="http://www.w3.org/2000/svg">
<path d="M29.351 20.1561L29.3565 20.1575C30.7907 20.1657 32.1644 20.739 33.1791 21.7537C34.2012 22.7758 34.7754 24.162 34.7754 25.6074C34.7754 27.0529 34.2012 28.4391 33.1791 29.4612C32.1571 30.4832 30.7709 31.0574 29.3256 31.0574L29.351 20.1561ZM29.351 20.1561L29.3202 20.1561M29.351 20.1561L29.3202 20.1561M29.3202 20.1561L22.2902 20.1561M29.3202 20.1561L22.2902 20.1561M22.2902 20.1561L22.2902 13.4699L24.2476 15.4284L24.2476 15.4284C24.4896 15.6704 24.8179 15.8064 25.1602 15.8064C25.5025 15.8064 25.8307 15.6704 26.0728 15.4284C26.3148 15.1864 26.4508 14.8581 26.4508 14.5158C26.4508 14.1736 26.3148 13.8453 26.0728 13.6033L21.9128 9.44326C21.882 9.41251 21.8507 9.38446 21.8212 9.35935L21.8142 9.35341L21.8068 9.34799L21.7747 9.3245L21.7283 9.28939L21.718 9.28162L21.707 9.27494L21.6641 9.24894L21.6641 9.24892L21.6612 9.24725L21.617 9.22125L21.6085 9.21621L21.5995 9.21187L21.554 9.18976L21.5541 9.18964L21.5463 9.18619L21.4995 9.16539L21.4924 9.16221L21.485 9.15948L21.4395 9.14257L21.437 9.14163L21.3863 9.12344L21.3753 9.11951L21.3641 9.11661L21.3186 9.10491L21.3186 9.1049L21.3155 9.10416L21.2622 9.09116L21.2504 9.08827L21.2384 9.08655L21.1838 9.07875L21.1662 9.07624L21.1484 9.07624L21.1149 9.07624C21.0386 9.0693 20.9618 9.0693 20.8855 9.07624L20.852 9.07624L20.8342 9.07624L20.8166 9.07875L20.762 9.08655L20.75 9.08827L20.7382 9.09116L20.6849 9.10416L20.6849 9.10414L20.6818 9.10491L20.6363 9.11661L20.6251 9.11951L20.6141 9.12344L20.5634 9.14164L20.5634 9.14162L20.5609 9.14258L20.5154 9.15948L20.508 9.1622L20.5009 9.16538L20.4541 9.18618L20.454 9.18605L20.4464 9.18977L20.4009 9.21187L20.3919 9.21621L20.3833 9.22125L20.3392 9.24725L20.3391 9.24723L20.3363 9.24894L20.2934 9.27494L20.2824 9.28161L20.2721 9.28939L20.2257 9.3245L20.1936 9.34799L20.1862 9.35341L20.1792 9.35935C20.1496 9.38446 20.1184 9.41251 20.0876 9.44326L15.9276 13.6033C15.6856 13.8453 15.5496 14.1736 15.5496 14.5158C15.5496 14.8581 15.6856 15.1864 15.9276 15.4284C16.1696 15.6704 16.4979 15.8064 16.8402 15.8064C17.1825 15.8064 17.5107 15.6704 17.7528 15.4284L19.7102 13.471L19.7102 20.1574L12.6802 20.1574C11.2348 20.1574 9.84854 20.7316 8.82646 21.7537C7.80439 22.7758 7.2302 24.162 7.2302 25.6074C7.2302 27.0529 7.80439 28.4391 8.82646 29.4612C9.84845 30.4832 11.2345 31.0573 12.6798 31.0574L22.2902 20.1561ZM13.2134 31.0316C13.0362 31.0491 12.8583 31.0577 12.6802 31.0574L13.2134 31.0316ZM13.2134 31.0316C13.7555 32.6223 14.7724 34.0107 16.1293 35.0079C17.5421 36.0462 19.2495 36.6062 21.0028 36.6062C22.7561 36.6062 24.4635 36.0462 25.8763 35.0079C27.2331 34.0107 28.2501 32.6223 28.7922 31.0316C28.9694 31.0491 29.1473 31.0577 29.3254 31.0574L13.2134 31.0316ZM29.3196 28.4761L29.3202 28.4761C30.0814 28.4761 30.8114 28.1738 31.3496 27.6355C31.8878 27.0973 32.1902 26.3673 32.1902 25.6061C32.1902 24.845 31.8878 24.115 31.3496 23.5767C30.8114 23.0385 30.0814 22.7361 29.3202 22.7361L22.2902 22.7361L22.2902 26.9971C22.2902 27.3393 22.1543 27.6674 21.9124 27.9093C21.6704 28.1512 21.3423 28.2871 21.0002 28.2871C20.6581 28.2871 20.3299 28.1512 20.088 27.9093C19.8461 27.6674 19.7102 27.3393 19.7102 26.9971L19.7102 22.7361L12.6802 22.7361L12.6801 22.7361C12.2595 22.736 11.8441 22.8284 11.4631 23.0067C11.0822 23.1849 10.745 23.4448 10.4756 23.7678C10.2062 24.0907 10.0111 24.469 9.90402 24.8757C9.79698 25.2825 9.78065 25.7078 9.85619 26.1216C9.93173 26.5353 10.0973 26.9274 10.3411 27.2701C10.585 27.6128 10.9012 27.8977 11.2674 28.1047C11.6335 28.3116 12.0407 28.4356 12.4601 28.4677C12.8795 28.4999 13.3008 28.4395 13.6942 28.2908C13.873 28.2229 14.0647 28.1956 14.2554 28.2109C14.4462 28.2262 14.6313 28.2838 14.7971 28.3796C14.9629 28.4753 15.1053 28.6067 15.214 28.7643L15.0082 28.9062L15.214 28.7643C15.3227 28.9219 15.395 29.1017 15.4256 29.2907M29.3196 28.4761L17.1808 32.8697C18.2467 33.7747 19.5994 34.2715 20.9976 34.2715C22.3958 34.2715 23.7485 33.7747 24.8144 32.8697C25.8802 31.9647 26.5897 30.7104 26.8164 29.3306M29.3196 28.4761C28.9718 28.4769 28.6267 28.4142 28.3014 28.291M29.3196 28.4761L28.3014 28.291M15.4256 29.2907L15.1788 29.3306L15.4255 29.2901C15.4255 29.2903 15.4256 29.2905 15.4256 29.2907ZM15.4256 29.2907C15.6427 30.6117 16.3222 31.8126 17.3427 32.6791C18.3633 33.5457 19.6587 34.0215 20.9976 34.0215C22.3365 34.0215 23.6319 33.5457 24.6525 32.6791C25.6732 31.8125 26.3526 30.6113 26.5697 29.2901M26.5697 29.2901C26.5697 29.2903 26.5696 29.2905 26.5696 29.2907L26.8164 29.3306M26.5697 29.2901C26.6003 29.1013 26.6726 28.9217 26.7812 28.7643C26.8899 28.6067 27.0323 28.4753 27.1981 28.3796C27.3639 28.2838 27.5489 28.2262 27.7398 28.2109C27.9306 28.1956 28.1225 28.2229 28.3014 28.291M26.5697 29.2901L26.8164 29.3306M26.8164 29.3306L28.3014 28.291" fill="#07A53D" stroke="#07A53D" stroke-width="0.5"/>
<path d="M38.4302 3.33L5.36935 3.33C5.36929 3.33 5.36923 3.33 5.36917 3.33C4.89207 3.33065 4.43471 3.52055 4.09745 3.85802C3.76015 4.19554 3.57054 4.65309 3.57023 5.13026V43.1661C4.42917 42.6328 5.42317 42.3484 6.44063 42.35M38.4302 3.33L6.44024 42.6M38.4302 3.33V42.35M38.4302 3.33H38.6802V42.35H38.4302M38.4302 3.33V3.08V3.33ZM6.44063 42.35L6.44024 42.6M6.44063 42.35H6.44024V42.6M6.44063 42.35H38.4302M6.44024 42.6H38.4302V42.35M5.36903 0.75L5.36872 0.75C4.20768 0.75146 3.09464 1.21342 2.27379 2.03453C1.45294 2.85564 0.991329 3.96883 0.990234 5.12986V5.1301V47.8C0.990234 49.2454 1.56443 50.6317 2.5865 51.6537C3.60858 52.6758 4.9948 53.25 6.44024 53.25H39.7202C40.0624 53.25 40.3905 53.1141 40.6324 52.8722C40.8743 52.6302 41.0102 52.3021 41.0102 51.96C41.0102 51.6179 40.8743 51.2898 40.6324 51.0478C40.3905 50.8059 40.0624 50.67 39.7202 50.67H36.8502V44.93H39.7202C40.0624 44.93 40.3905 44.7941 40.6324 44.5522C40.8743 44.3102 41.0102 43.9821 41.0102 43.64V2.04C41.0102 1.69787 40.8743 1.36975 40.6324 1.12783C40.3905 0.88591 40.0624 0.75 39.7202 0.75L5.36903 0.75ZM3.57023 43.4632C3.48536 43.5195 3.40199 43.5785 3.32023 43.64V43.3311L3.57023 43.4632ZM3.57023 47.8C3.57023 47.0388 3.87261 46.3088 4.41084 45.7706C4.94907 45.2324 5.67906 44.93 6.44024 44.93H34.2702V50.67H6.44024C5.67906 50.67 4.94907 50.3676 4.41084 49.8294C3.87261 49.2912 3.57023 48.5612 3.57023 47.8Z" fill="#07A53D" stroke="#07A53D" stroke-width="0.5"/>
</svg>
