<svg width="64" height="52" viewBox="0 0 64 52" fill="none" xmlns="http://www.w3.org/2000/svg">
<path d="M0.800781 2.6C0.800781 1.16407 1.96484 0 3.40078 0H9.90078C11.0134 0 12.0027 0.707954 12.3617 1.76106L23.5701 34.639C23.9291 35.692 24.9184 36.4 26.031 36.4H48.445C49.5393 36.4 50.5167 35.7146 50.8895 34.6858L56.8932 18.1161H52.0918C50.6558 18.1161 49.4918 16.9521 49.4918 15.5161C49.4918 14.0802 50.6558 12.9161 52.0918 12.9161H60.6008C61.4484 12.9161 62.2429 13.3293 62.7294 14.0233C63.2161 14.7173 63.3339 15.6049 63.0453 16.4019L55.7786 36.4572C54.66 39.5439 51.7283 41.6 48.445 41.6H47.6008H26.8008H26.031C22.6932 41.6 19.7253 39.4761 18.6482 36.3168L8.04022 5.2H3.40078C1.96484 5.2 0.800781 4.03593 0.800781 2.6ZM26.8008 41.6C29.6727 41.6 32.0008 43.928 32.0008 46.8C32.0008 49.672 29.6727 52 26.8008 52C23.9289 52 21.6008 49.672 21.6008 46.8C21.6008 43.928 23.9289 41.6 26.8008 41.6ZM47.6008 41.6C50.4727 41.6 52.8008 43.928 52.8008 46.8C52.8008 49.672 50.4727 52 47.6008 52C44.7288 52 42.4008 49.672 42.4008 46.8C42.4008 43.928 44.7288 41.6 47.6008 41.6Z" fill="#07A53D"/>
<path d="M28.8623 23.9384C27.847 22.9231 27.847 21.2768 28.8623 20.2615L35.3623 13.7615C36.3776 12.7461 38.0239 12.7461 39.0392 13.7615L45.5392 20.2615C46.5545 21.2768 46.5545 22.9231 45.5392 23.9384C44.5239 24.9537 42.8776 24.9537 41.8623 23.9384L39.8008 21.8769V31.2C39.8008 32.6359 38.6368 33.8 37.2008 33.8C35.7648 33.8 34.6008 32.6359 34.6008 31.2V21.8769L32.5392 23.9384C31.5239 24.9537 29.8776 24.9537 28.8623 23.9384ZM29.4008 5.19995C27.9648 5.19995 26.8008 6.36402 26.8008 7.79995C26.8008 9.23588 27.9648 10.4 29.4008 10.4H45.0008C46.4368 10.4 47.6008 9.23588 47.6008 7.79995C47.6008 6.36402 46.4368 5.19995 45.0008 5.19995H29.4008Z" fill="#07A53D"/>
</svg>
