<svg width="113" height="118" viewBox="0 0 113 118" fill="none" xmlns="http://www.w3.org/2000/svg">
<path opacity="0.2" d="M62 16.5C58.8 16.5 56 19.3 56 22.5C56 25.7 58.8 28.5 62 28.5C65.2 28.5 68 25.7 68 22.5C68 19.3 65.2 16.5 62 16.5ZM84 0.5H28C21.2 0.5 16 5.7 16 12.5V68.5C16 75.3 21.2 80.5 28 80.5H84C90.8 80.5 96 75.3 96 68.5V12.5C96 5.7 90.8 0.5 84 0.5ZM88 48.1L80.4 40.5C75.6 36.1 68 36.1 63.6 40.5L60 44.1L48.4 32.5C43.6 28.1 36 28.1 31.6 32.5L24 40.1V12.5C24 10.1 25.6 8.5 28 8.5H84C86.4 8.5 88 10.1 88 12.5V48.1Z" fill="#ACB4B0"/>
<rect x="46" y="30.5" width="20" height="20" rx="4" fill="#07A53D"/>
<path d="M56 34.5V46.5M50 40.5H62" stroke="white" stroke-width="2" stroke-linecap="round" stroke-linejoin="round"/>
<path d="M4.28336 100.644C3.34736 100.644 2.63136 100.408 2.13536 99.936C1.64736 99.464 1.40336 98.796 1.40336 97.932V95.208C1.40336 94.344 1.65136 93.676 2.14736 93.204C2.64336 92.732 3.35936 92.496 4.29536 92.496C4.90336 92.496 5.43136 92.6 5.87936 92.808C6.32736 93.008 6.66336 93.3 6.88736 93.684C7.11136 94.068 7.19536 94.532 7.13936 95.076C7.13136 95.1 7.11936 95.124 7.10336 95.148C7.09536 95.172 7.07536 95.184 7.04336 95.184H6.57536C6.51136 95.184 6.48736 95.156 6.50336 95.1C6.54336 94.444 6.36336 93.944 5.96336 93.6C5.57136 93.248 5.01936 93.072 4.30736 93.072C3.57936 93.072 3.01936 93.256 2.62736 93.624C2.23536 93.992 2.03936 94.52 2.03936 95.208V97.932C2.03936 98.62 2.23536 99.148 2.62736 99.516C3.01936 99.884 3.57936 100.068 4.30736 100.068C5.03536 100.068 5.59136 99.896 5.97536 99.552C6.35936 99.208 6.53536 98.704 6.50336 98.04C6.48736 97.984 6.51136 97.956 6.57536 97.956H7.04336C7.09136 97.956 7.12336 97.992 7.13936 98.064C7.17136 98.6 7.07536 99.06 6.85136 99.444C6.62736 99.828 6.29536 100.124 5.85536 100.332C5.42336 100.54 4.89936 100.644 4.28336 100.644ZM9.12911 100.5C9.07311 100.5 9.04511 100.472 9.04511 100.416V92.388C9.04511 92.332 9.07311 92.304 9.12911 92.304H9.60911C9.65711 92.304 9.68111 92.332 9.68111 92.388V100.416C9.68111 100.472 9.65711 100.5 9.60911 100.5H9.12911ZM11.9885 100.5C11.9325 100.5 11.9045 100.472 11.9045 100.416V94.776C11.9045 94.728 11.9325 94.704 11.9885 94.704H12.4685C12.5165 94.704 12.5405 94.728 12.5405 94.776V100.416C12.5405 100.472 12.5165 100.5 12.4685 100.5H11.9885ZM12.2285 93.564C12.0765 93.564 11.9605 93.524 11.8805 93.444C11.8085 93.356 11.7725 93.244 11.7725 93.108V93.012C11.7725 92.884 11.8085 92.78 11.8805 92.7C11.9605 92.612 12.0765 92.568 12.2285 92.568C12.3805 92.568 12.4925 92.612 12.5645 92.7C12.6445 92.78 12.6845 92.884 12.6845 93.012V93.108C12.6845 93.244 12.6445 93.356 12.5645 93.444C12.4925 93.524 12.3805 93.564 12.2285 93.564ZM16.7006 100.644C15.9406 100.644 15.3606 100.456 14.9606 100.08C14.5686 99.696 14.3726 99.144 14.3726 98.424V96.828C14.3726 96.092 14.5686 95.532 14.9606 95.148C15.3606 94.756 15.9366 94.56 16.6886 94.56C17.1446 94.56 17.5326 94.632 17.8526 94.776C18.1806 94.912 18.4326 95.108 18.6086 95.364C18.7846 95.612 18.8726 95.912 18.8726 96.264C18.8726 96.368 18.8446 96.42 18.7886 96.42H18.3086C18.2926 96.42 18.2766 96.412 18.2606 96.396C18.2446 96.372 18.2366 96.34 18.2366 96.3C18.2366 95.932 18.0966 95.644 17.8166 95.436C17.5446 95.228 17.1686 95.124 16.6886 95.124C16.1286 95.124 15.7086 95.272 15.4286 95.568C15.1486 95.856 15.0086 96.296 15.0086 96.888V98.364C15.0086 98.932 15.1486 99.36 15.4286 99.648C15.7166 99.928 16.1446 100.068 16.7126 100.068C17.2006 100.068 17.5766 99.96 17.8406 99.744C18.1046 99.528 18.2366 99.232 18.2366 98.856C18.2366 98.776 18.2606 98.736 18.3086 98.736H18.7886C18.8446 98.736 18.8726 98.76 18.8726 98.808C18.8726 99.384 18.6886 99.836 18.3206 100.164C17.9606 100.484 17.4206 100.644 16.7006 100.644ZM20.7541 100.5C20.6981 100.5 20.6701 100.472 20.6701 100.416V92.388C20.6701 92.332 20.6981 92.304 20.7541 92.304H21.2341C21.2821 92.304 21.3061 92.332 21.3061 92.388V95.976C21.3061 96.168 21.3061 96.36 21.3061 96.552C21.3061 96.736 21.3061 96.924 21.3061 97.116C21.3061 97.3 21.3061 97.488 21.3061 97.68H21.3181C21.4781 97.512 21.6341 97.344 21.7861 97.176C21.9461 97.008 22.1101 96.844 22.2781 96.684L24.1381 94.74C24.1621 94.716 24.1981 94.704 24.2461 94.704H24.8941C24.9261 94.704 24.9461 94.712 24.9541 94.728C24.9701 94.744 24.9621 94.768 24.9301 94.8L22.8421 96.912L25.1821 100.404C25.1981 100.428 25.1981 100.452 25.1821 100.476C25.1741 100.492 25.1541 100.5 25.1221 100.5H24.5581C24.5181 100.5 24.4861 100.48 24.4621 100.44L22.3861 97.38L21.3061 98.472V100.416C21.3061 100.472 21.2821 100.5 21.2341 100.5H20.7541ZM31.192 100.644C30.824 100.644 30.524 100.58 30.292 100.452C30.068 100.324 29.904 100.128 29.8 99.864C29.696 99.6 29.644 99.26 29.644 98.844V95.256H28.672C28.616 95.256 28.588 95.228 28.588 95.172V94.776C28.588 94.728 28.616 94.704 28.672 94.704H29.656L29.74 93.168C29.748 93.112 29.776 93.084 29.824 93.084H30.196C30.252 93.084 30.28 93.112 30.28 93.168V94.704H32.284C32.34 94.704 32.368 94.728 32.368 94.776V95.172C32.368 95.228 32.34 95.256 32.284 95.256H30.28V98.832C30.28 99.288 30.36 99.612 30.52 99.804C30.68 99.988 30.944 100.08 31.312 100.08C31.488 100.08 31.664 100.06 31.84 100.02C32.024 99.98 32.184 99.928 32.32 99.864C32.344 99.856 32.364 99.86 32.38 99.876C32.396 99.884 32.404 99.9 32.404 99.924V100.332C32.404 100.38 32.384 100.412 32.344 100.428C32.192 100.492 32.016 100.544 31.816 100.584C31.616 100.624 31.408 100.644 31.192 100.644ZM35.9785 100.644C35.2265 100.644 34.6465 100.456 34.2385 100.08C33.8305 99.696 33.6265 99.136 33.6265 98.4V96.804C33.6265 96.068 33.8305 95.512 34.2385 95.136C34.6465 94.752 35.2265 94.56 35.9785 94.56C36.7385 94.56 37.3225 94.752 37.7305 95.136C38.1385 95.512 38.3425 96.068 38.3425 96.804V98.4C38.3425 99.128 38.1385 99.684 37.7305 100.068C37.3225 100.452 36.7385 100.644 35.9785 100.644ZM35.9785 100.068C36.5545 100.068 36.9865 99.92 37.2745 99.624C37.5625 99.328 37.7065 98.896 37.7065 98.328V96.876C37.7065 96.308 37.5625 95.876 37.2745 95.58C36.9865 95.276 36.5545 95.124 35.9785 95.124C35.4105 95.124 34.9825 95.276 34.6945 95.58C34.4065 95.876 34.2625 96.308 34.2625 96.876V98.328C34.2625 98.896 34.4065 99.328 34.6945 99.624C34.9825 99.92 35.4105 100.068 35.9785 100.068ZM45.1789 100.644C44.9469 100.644 44.7189 100.628 44.4949 100.596C44.2709 100.564 44.0349 100.524 43.7869 100.476C43.5469 100.428 43.2749 100.388 42.9709 100.356V92.388C42.9709 92.332 42.9989 92.304 43.0549 92.304H43.5349C43.5829 92.304 43.6069 92.332 43.6069 92.388V99.876C43.8709 99.924 44.1269 99.968 44.3749 100.008C44.6309 100.048 44.8749 100.068 45.1069 100.068C45.6829 100.068 46.1269 99.932 46.4389 99.66C46.7589 99.388 46.9189 98.96 46.9189 98.376V96.684C46.9189 96.148 46.8189 95.756 46.6189 95.508C46.4189 95.252 46.1069 95.124 45.6829 95.124C45.3469 95.124 45.0029 95.224 44.6509 95.424C44.3069 95.624 43.9109 95.956 43.4629 96.42L43.4869 95.76C43.8869 95.344 44.2749 95.04 44.6509 94.848C45.0269 94.656 45.4069 94.56 45.7909 94.56C46.3829 94.56 46.8229 94.732 47.1109 95.076C47.4069 95.42 47.5549 95.948 47.5549 96.66V98.424C47.5549 99.184 47.3469 99.744 46.9309 100.104C46.5229 100.464 45.9389 100.644 45.1789 100.644ZM49.4885 100.5C49.4325 100.5 49.4045 100.472 49.4045 100.416V96.072C49.4045 95.848 49.3965 95.632 49.3805 95.424C49.3725 95.208 49.3565 94.996 49.3325 94.788C49.3245 94.732 49.3525 94.704 49.4165 94.704H49.8605C49.8925 94.704 49.9125 94.708 49.9205 94.716C49.9365 94.724 49.9485 94.744 49.9565 94.776C49.9805 94.952 49.9965 95.14 50.0045 95.34C50.0205 95.54 50.0285 95.732 50.0285 95.916L50.0405 96.312V100.416C50.0405 100.472 50.0165 100.5 49.9685 100.5H49.4885ZM49.9205 96.612L49.9085 95.964C50.0765 95.732 50.2725 95.508 50.4965 95.292C50.7205 95.076 50.9565 94.9 51.2045 94.764C51.4605 94.628 51.7165 94.56 51.9725 94.56C52.1325 94.56 52.2525 94.572 52.3325 94.596C52.3645 94.604 52.3845 94.616 52.3925 94.632C52.4005 94.64 52.4045 94.656 52.4045 94.68C52.4205 94.784 52.4245 94.884 52.4165 94.98C52.4165 95.076 52.4085 95.172 52.3925 95.268C52.3925 95.3 52.3805 95.324 52.3565 95.34C52.3405 95.348 52.3125 95.348 52.2725 95.34C52.2245 95.332 52.1685 95.324 52.1045 95.316C52.0405 95.308 51.9645 95.304 51.8765 95.304C51.6365 95.304 51.3965 95.364 51.1565 95.484C50.9245 95.604 50.7045 95.764 50.4965 95.964C50.2885 96.156 50.0965 96.372 49.9205 96.612ZM55.666 100.644C54.914 100.644 54.334 100.456 53.926 100.08C53.518 99.696 53.314 99.136 53.314 98.4V96.804C53.314 96.068 53.518 95.512 53.926 95.136C54.334 94.752 54.914 94.56 55.666 94.56C56.426 94.56 57.01 94.752 57.418 95.136C57.826 95.512 58.03 96.068 58.03 96.804V98.4C58.03 99.128 57.826 99.684 57.418 100.068C57.01 100.452 56.426 100.644 55.666 100.644ZM55.666 100.068C56.242 100.068 56.674 99.92 56.962 99.624C57.25 99.328 57.394 98.896 57.394 98.328V96.876C57.394 96.308 57.25 95.876 56.962 95.58C56.674 95.276 56.242 95.124 55.666 95.124C55.098 95.124 54.67 95.276 54.382 95.58C54.094 95.876 53.95 96.308 53.95 96.876V98.328C53.95 98.896 54.094 99.328 54.382 99.624C54.67 99.92 55.098 100.068 55.666 100.068ZM61.1427 100.5C61.0947 100.5 61.0627 100.476 61.0467 100.428L59.1627 94.788C59.1467 94.732 59.1667 94.704 59.2227 94.704H59.7387C59.7867 94.704 59.8187 94.724 59.8347 94.764L60.9747 98.292C61.0627 98.564 61.1507 98.836 61.2387 99.108C61.3267 99.38 61.4107 99.652 61.4907 99.924H61.5147C61.6027 99.66 61.6907 99.396 61.7787 99.132C61.8667 98.86 61.9547 98.592 62.0427 98.328L62.7867 96.06L62.4267 94.884C62.4027 94.82 62.4227 94.788 62.4867 94.788H62.9427C62.9907 94.788 63.0227 94.812 63.0387 94.86L64.0827 98.328C64.1627 98.592 64.2427 98.86 64.3227 99.132C64.4027 99.396 64.4787 99.66 64.5507 99.924H64.5747C64.6627 99.652 64.7467 99.384 64.8267 99.12C64.9147 98.848 65.0027 98.576 65.0907 98.304L66.2427 94.764C66.2587 94.724 66.2867 94.704 66.3267 94.704H66.8427C66.9067 94.704 66.9307 94.732 66.9147 94.788L65.0187 100.428C65.0107 100.452 64.9987 100.472 64.9827 100.488C64.9667 100.496 64.9467 100.5 64.9227 100.5H64.2387C64.1907 100.5 64.1587 100.48 64.1427 100.44L63.6507 98.892C63.5467 98.572 63.4467 98.252 63.3507 97.932C63.2547 97.604 63.1587 97.264 63.0627 96.912H63.0507C62.9467 97.264 62.8427 97.6 62.7387 97.92C62.6427 98.24 62.5387 98.56 62.4267 98.88L61.9107 100.44C61.8947 100.48 61.8667 100.5 61.8267 100.5H61.1427ZM69.9877 100.644C69.2997 100.644 68.7877 100.5 68.4517 100.212C68.1237 99.916 67.9597 99.46 67.9597 98.844C67.9597 98.796 67.9837 98.772 68.0317 98.772H68.5237C68.5717 98.772 68.5957 98.792 68.5957 98.832C68.5957 99.28 68.7037 99.6 68.9197 99.792C69.1437 99.984 69.5037 100.08 69.9997 100.08C70.4957 100.08 70.8597 100 71.0917 99.84C71.3317 99.672 71.4517 99.428 71.4517 99.108C71.4517 98.852 71.3877 98.648 71.2597 98.496C71.1317 98.336 70.9117 98.188 70.5997 98.052L69.1957 97.44C68.7717 97.256 68.4717 97.056 68.2957 96.84C68.1197 96.624 68.0317 96.332 68.0317 95.964C68.0317 95.5 68.1957 95.152 68.5237 94.92C68.8517 94.68 69.3277 94.56 69.9517 94.56C70.6157 94.56 71.1117 94.696 71.4397 94.968C71.7757 95.232 71.9437 95.612 71.9437 96.108C71.9437 96.156 71.9157 96.18 71.8597 96.18H71.3797C71.3557 96.18 71.3357 96.172 71.3197 96.156C71.3037 96.132 71.2957 96.1 71.2957 96.06C71.2957 95.764 71.1877 95.536 70.9717 95.376C70.7557 95.208 70.4237 95.124 69.9757 95.124C69.5517 95.124 69.2277 95.192 69.0037 95.328C68.7797 95.464 68.6677 95.676 68.6677 95.964C68.6677 96.212 68.7237 96.4 68.8357 96.528C68.9557 96.648 69.1797 96.78 69.5077 96.924L70.9237 97.548C71.3397 97.724 71.6357 97.928 71.8117 98.16C71.9957 98.384 72.0877 98.688 72.0877 99.072C72.0877 99.584 71.9117 99.976 71.5597 100.248C71.2157 100.512 70.6917 100.644 69.9877 100.644ZM75.8095 100.644C75.0575 100.644 74.4855 100.464 74.0935 100.104C73.7015 99.744 73.5055 99.216 73.5055 98.52V96.828C73.5055 96.084 73.6975 95.52 74.0815 95.136C74.4655 94.752 75.0295 94.56 75.7735 94.56C76.5255 94.56 77.0895 94.752 77.4655 95.136C77.8495 95.512 78.0415 96.068 78.0415 96.804V97.608C78.0415 97.656 78.0175 97.68 77.9695 97.68H74.1415V98.352C74.1415 98.936 74.2775 99.368 74.5495 99.648C74.8295 99.928 75.2575 100.068 75.8335 100.068C76.3055 100.068 76.6655 99.98 76.9135 99.804C77.1615 99.62 77.2855 99.364 77.2855 99.036C77.2855 98.98 77.3175 98.952 77.3815 98.952H77.8495C77.8975 98.952 77.9255 98.976 77.9335 99.024C77.9495 99.528 77.7695 99.924 77.3935 100.212C77.0255 100.5 76.4975 100.644 75.8095 100.644ZM74.1415 97.128H77.4055V96.864C77.4055 96.28 77.2695 95.844 76.9975 95.556C76.7255 95.268 76.3215 95.124 75.7855 95.124C75.2335 95.124 74.8215 95.272 74.5495 95.568C74.2775 95.856 74.1415 96.288 74.1415 96.864V97.128ZM82.7229 100.5C82.6669 100.5 82.6389 100.472 82.6389 100.416V94.776C82.6389 94.728 82.6669 94.704 82.7229 94.704H83.2029C83.2509 94.704 83.2749 94.728 83.2749 94.776V100.416C83.2749 100.472 83.2509 100.5 83.2029 100.5H82.7229ZM82.9629 93.564C82.8109 93.564 82.6949 93.524 82.6149 93.444C82.5429 93.356 82.5069 93.244 82.5069 93.108V93.012C82.5069 92.884 82.5429 92.78 82.6149 92.7C82.6949 92.612 82.8109 92.568 82.9629 92.568C83.1149 92.568 83.2269 92.612 83.2989 92.7C83.3789 92.78 83.4189 92.884 83.4189 93.012V93.108C83.4189 93.244 83.3789 93.356 83.2989 93.444C83.2269 93.524 83.1149 93.564 82.9629 93.564ZM85.383 100.5C85.327 100.5 85.299 100.472 85.299 100.416V96.096C85.299 95.88 85.291 95.66 85.275 95.436C85.267 95.204 85.251 94.988 85.227 94.788C85.219 94.732 85.247 94.704 85.311 94.704H85.755C85.787 94.704 85.807 94.708 85.815 94.716C85.831 94.716 85.839 94.732 85.839 94.764C85.855 94.916 85.871 95.076 85.887 95.244C85.911 95.412 85.923 95.588 85.923 95.772C86.315 95.364 86.687 95.06 87.039 94.86C87.399 94.66 87.763 94.56 88.131 94.56C88.547 94.56 88.879 94.668 89.127 94.884C89.375 95.1 89.535 95.416 89.607 95.832C90.023 95.4 90.407 95.08 90.759 94.872C91.119 94.664 91.491 94.56 91.875 94.56C92.379 94.56 92.759 94.724 93.015 95.052C93.279 95.38 93.411 95.852 93.411 96.468V100.416C93.411 100.472 93.387 100.5 93.339 100.5H92.859C92.803 100.5 92.775 100.472 92.775 100.416V96.516C92.775 96.06 92.687 95.716 92.511 95.484C92.343 95.244 92.079 95.124 91.719 95.124C91.415 95.124 91.099 95.232 90.771 95.448C90.443 95.656 90.079 95.964 89.679 96.372V100.416C89.679 100.472 89.651 100.5 89.595 100.5H89.127C89.071 100.5 89.043 100.472 89.043 100.416V96.516C89.043 96.06 88.955 95.716 88.779 95.484C88.611 95.244 88.347 95.124 87.987 95.124C87.683 95.124 87.367 95.232 87.039 95.448C86.711 95.656 86.343 95.964 85.935 96.372V100.416C85.935 100.472 85.911 100.5 85.863 100.5H85.383ZM98.8437 100.5C98.8197 100.5 98.7997 100.492 98.7837 100.476C98.7677 100.452 98.7557 100.424 98.7477 100.392C98.7397 100.264 98.7237 100.096 98.6997 99.888C98.6837 99.672 98.6717 99.468 98.6637 99.276L98.6517 98.976V96.468C98.6517 95.988 98.5517 95.644 98.3517 95.436C98.1597 95.228 97.8277 95.124 97.3557 95.124C96.4837 95.124 96.0477 95.46 96.0477 96.132C96.0477 96.18 96.0197 96.204 95.9637 96.204H95.4837C95.4357 96.204 95.4077 96.16 95.3997 96.072C95.3757 95.608 95.5357 95.24 95.8797 94.968C96.2237 94.696 96.7237 94.56 97.3797 94.56C98.0277 94.552 98.5077 94.704 98.8197 95.016C99.1317 95.32 99.2877 95.8 99.2877 96.456V99.108C99.2877 99.364 99.2917 99.6 99.2997 99.816C99.3157 100.032 99.3357 100.232 99.3597 100.416C99.3677 100.472 99.3397 100.5 99.2757 100.5H98.8437ZM96.5037 100.644C96.0397 100.644 95.6877 100.508 95.4477 100.236C95.2157 99.964 95.0997 99.576 95.0997 99.072C95.0997 98.688 95.1757 98.372 95.3277 98.124C95.4797 97.868 95.7237 97.668 96.0597 97.524C96.3957 97.38 96.8357 97.284 97.3797 97.236L98.7837 97.08V97.584L97.3677 97.728C96.7677 97.792 96.3437 97.924 96.0957 98.124C95.8557 98.316 95.7357 98.62 95.7357 99.036C95.7357 99.372 95.8077 99.632 95.9517 99.816C96.1037 99.992 96.3357 100.08 96.6477 100.08C96.9597 100.08 97.2877 99.964 97.6317 99.732C97.9837 99.5 98.3797 99.136 98.8197 98.64V99.252C98.5157 99.588 98.2317 99.86 97.9677 100.068C97.7117 100.268 97.4637 100.412 97.2237 100.5C96.9917 100.596 96.7517 100.644 96.5037 100.644ZM103.347 102.864C102.427 102.864 101.771 102.74 101.379 102.492C100.987 102.252 100.791 101.876 100.791 101.364C100.791 100.98 100.879 100.668 101.055 100.428C101.239 100.188 101.515 99.992 101.883 99.84L102.459 100.044C102.107 100.148 101.851 100.296 101.691 100.488C101.531 100.68 101.451 100.936 101.451 101.256C101.451 101.648 101.595 101.92 101.883 102.072C102.171 102.232 102.667 102.312 103.371 102.312C104.107 102.312 104.615 102.228 104.895 102.06C105.175 101.892 105.315 101.604 105.315 101.196C105.315 100.868 105.235 100.636 105.075 100.5C104.923 100.356 104.663 100.272 104.295 100.248L102.231 100.128C101.927 100.112 101.683 100.02 101.499 99.852C101.323 99.676 101.235 99.432 101.235 99.12C101.235 98.952 101.263 98.804 101.319 98.676C101.383 98.548 101.475 98.428 101.595 98.316C101.715 98.196 101.863 98.076 102.039 97.956L102.471 98.22C102.263 98.316 102.103 98.428 101.991 98.556C101.887 98.684 101.835 98.836 101.835 99.012C101.835 99.172 101.887 99.3 101.991 99.396C102.103 99.492 102.307 99.552 102.603 99.576L104.487 99.696C104.983 99.728 105.347 99.864 105.579 100.104C105.819 100.336 105.939 100.708 105.939 101.22C105.939 101.804 105.739 102.224 105.339 102.48C104.939 102.736 104.275 102.864 103.347 102.864ZM103.443 98.484C102.731 98.484 102.199 98.32 101.847 97.992C101.495 97.664 101.319 97.172 101.319 96.516C101.319 95.86 101.495 95.372 101.847 95.052C102.207 94.724 102.747 94.56 103.467 94.56C104.171 94.56 104.699 94.724 105.051 95.052C105.403 95.38 105.579 95.872 105.579 96.528C105.579 97.184 105.403 97.676 105.051 98.004C104.699 98.324 104.163 98.484 103.443 98.484ZM103.443 97.92C103.971 97.92 104.351 97.812 104.583 97.596C104.823 97.372 104.943 97.016 104.943 96.528C104.943 96.032 104.823 95.676 104.583 95.46C104.343 95.236 103.963 95.124 103.443 95.124C102.923 95.124 102.543 95.236 102.303 95.46C102.071 95.676 101.955 96.032 101.955 96.528C101.955 97.016 102.071 97.372 102.303 97.596C102.543 97.812 102.923 97.92 103.443 97.92ZM104.751 95.028L104.211 94.836C104.251 94.508 104.295 94.208 104.343 93.936C104.399 93.656 104.455 93.424 104.511 93.24C104.527 93.176 104.563 93.144 104.619 93.144H105.075C105.131 93.144 105.151 93.172 105.135 93.228C105.063 93.452 104.995 93.708 104.931 93.996C104.875 94.284 104.815 94.628 104.751 95.028ZM109.536 100.644C108.784 100.644 108.212 100.464 107.82 100.104C107.428 99.744 107.232 99.216 107.232 98.52V96.828C107.232 96.084 107.424 95.52 107.808 95.136C108.192 94.752 108.756 94.56 109.5 94.56C110.252 94.56 110.816 94.752 111.192 95.136C111.576 95.512 111.768 96.068 111.768 96.804V97.608C111.768 97.656 111.744 97.68 111.696 97.68H107.868V98.352C107.868 98.936 108.004 99.368 108.276 99.648C108.556 99.928 108.984 100.068 109.56 100.068C110.032 100.068 110.392 99.98 110.64 99.804C110.888 99.62 111.012 99.364 111.012 99.036C111.012 98.98 111.044 98.952 111.108 98.952H111.576C111.624 98.952 111.652 98.976 111.66 99.024C111.676 99.528 111.496 99.924 111.12 100.212C110.752 100.5 110.224 100.644 109.536 100.644ZM107.868 97.128H111.132V96.864C111.132 96.28 110.996 95.844 110.724 95.556C110.452 95.268 110.048 95.124 109.512 95.124C108.96 95.124 108.548 95.272 108.276 95.568C108.004 95.856 107.868 96.288 107.868 96.864V97.128ZM4.82425 114.644C4.07225 114.644 3.49225 114.456 3.08425 114.08C2.67625 113.696 2.47225 113.136 2.47225 112.4V110.804C2.47225 110.068 2.67625 109.512 3.08425 109.136C3.49225 108.752 4.07225 108.56 4.82425 108.56C5.58425 108.56 6.16825 108.752 6.57625 109.136C6.98425 109.512 7.18825 110.068 7.18825 110.804V112.4C7.18825 113.128 6.98425 113.684 6.57625 114.068C6.16825 114.452 5.58425 114.644 4.82425 114.644ZM4.82425 114.068C5.40025 114.068 5.83225 113.92 6.12025 113.624C6.40825 113.328 6.55225 112.896 6.55225 112.328V110.876C6.55225 110.308 6.40825 109.876 6.12025 109.58C5.83225 109.276 5.40025 109.124 4.82425 109.124C4.25625 109.124 3.82825 109.276 3.54025 109.58C3.25225 109.876 3.10825 110.308 3.10825 110.876V112.328C3.10825 112.896 3.25225 113.328 3.54025 113.624C3.82825 113.92 4.25625 114.068 4.82425 114.068ZM9.09981 114.5C9.04381 114.5 9.01581 114.472 9.01581 114.416V110.072C9.01581 109.848 9.00781 109.632 8.99181 109.424C8.98381 109.208 8.96781 108.996 8.94381 108.788C8.93581 108.732 8.96381 108.704 9.02781 108.704H9.47181C9.50381 108.704 9.52381 108.708 9.53181 108.716C9.54781 108.724 9.55981 108.744 9.56781 108.776C9.59181 108.952 9.60781 109.14 9.61581 109.34C9.63181 109.54 9.63981 109.732 9.63981 109.916L9.65181 110.312V114.416C9.65181 114.472 9.62781 114.5 9.57981 114.5H9.09981ZM9.53181 110.612L9.51981 109.964C9.68781 109.732 9.88381 109.508 10.1078 109.292C10.3318 109.076 10.5678 108.9 10.8158 108.764C11.0718 108.628 11.3278 108.56 11.5838 108.56C11.7438 108.56 11.8638 108.572 11.9438 108.596C11.9758 108.604 11.9958 108.616 12.0038 108.632C12.0118 108.64 12.0158 108.656 12.0158 108.68C12.0318 108.784 12.0358 108.884 12.0278 108.98C12.0278 109.076 12.0198 109.172 12.0038 109.268C12.0038 109.3 11.9918 109.324 11.9678 109.34C11.9518 109.348 11.9238 109.348 11.8838 109.34C11.8358 109.332 11.7798 109.324 11.7158 109.316C11.6518 109.308 11.5758 109.304 11.4878 109.304C11.2478 109.304 11.0078 109.364 10.7678 109.484C10.5358 109.604 10.3158 109.764 10.1078 109.964C9.89981 110.156 9.70781 110.372 9.53181 110.612ZM17.6419 114.644C17.0739 114.644 16.6459 114.472 16.3579 114.128C16.0699 113.776 15.9259 113.252 15.9259 112.556V110.816C15.9259 110.08 16.1139 109.52 16.4899 109.136C16.8739 108.752 17.3979 108.56 18.0619 108.56C18.4059 108.56 18.7499 108.608 19.0939 108.704C19.4379 108.8 19.7419 108.928 20.0059 109.088L20.0419 109.664C19.7219 109.488 19.4019 109.356 19.0819 109.268C18.7699 109.172 18.4619 109.124 18.1579 109.124C17.6539 109.124 17.2619 109.268 16.9819 109.556C16.7019 109.844 16.5619 110.284 16.5619 110.876V112.58C16.5619 113.084 16.6619 113.46 16.8619 113.708C17.0619 113.948 17.3699 114.068 17.7859 114.068C18.0339 114.068 18.2739 114.02 18.5059 113.924C18.7459 113.82 18.9859 113.668 19.2259 113.468C19.4739 113.26 19.7419 113 20.0299 112.688L20.0179 113.312C19.7379 113.616 19.4699 113.868 19.2139 114.068C18.9659 114.26 18.7139 114.404 18.4579 114.5C18.2019 114.596 17.9299 114.644 17.6419 114.644ZM20.0899 114.5C20.0659 114.5 20.0419 114.492 20.0179 114.476C20.0019 114.46 19.9939 114.44 19.9939 114.416C19.9779 114.248 19.9579 114.068 19.9339 113.876C19.9179 113.676 19.9139 113.492 19.9219 113.324L19.8859 112.988V106.388C19.8859 106.332 19.9139 106.304 19.9699 106.304H20.4379C20.4939 106.304 20.5219 106.332 20.5219 106.388V113.156C20.5219 113.284 20.5259 113.424 20.5339 113.576C20.5419 113.728 20.5499 113.876 20.5579 114.02C20.5739 114.156 20.5859 114.28 20.5939 114.392C20.6099 114.464 20.5819 114.5 20.5099 114.5H20.0899ZM22.635 114.5C22.579 114.5 22.551 114.472 22.551 114.416V110.072C22.551 109.848 22.543 109.632 22.527 109.424C22.519 109.208 22.503 108.996 22.479 108.788C22.471 108.732 22.499 108.704 22.563 108.704H23.007C23.039 108.704 23.059 108.708 23.067 108.716C23.083 108.724 23.095 108.744 23.103 108.776C23.127 108.952 23.143 109.14 23.151 109.34C23.167 109.54 23.175 109.732 23.175 109.916L23.187 110.312V114.416C23.187 114.472 23.163 114.5 23.115 114.5H22.635ZM23.067 110.612L23.055 109.964C23.223 109.732 23.419 109.508 23.643 109.292C23.867 109.076 24.103 108.9 24.351 108.764C24.607 108.628 24.863 108.56 25.119 108.56C25.279 108.56 25.399 108.572 25.479 108.596C25.511 108.604 25.531 108.616 25.539 108.632C25.547 108.64 25.551 108.656 25.551 108.68C25.567 108.784 25.571 108.884 25.563 108.98C25.563 109.076 25.555 109.172 25.539 109.268C25.539 109.3 25.527 109.324 25.503 109.34C25.487 109.348 25.459 109.348 25.419 109.34C25.371 109.332 25.315 109.324 25.251 109.316C25.187 109.308 25.111 109.304 25.023 109.304C24.783 109.304 24.543 109.364 24.303 109.484C24.071 109.604 23.851 109.764 23.643 109.964C23.435 110.156 23.243 110.372 23.067 110.612ZM29.9668 114.5C29.9428 114.5 29.9228 114.492 29.9068 114.476C29.8908 114.452 29.8788 114.424 29.8708 114.392C29.8628 114.264 29.8468 114.096 29.8228 113.888C29.8068 113.672 29.7948 113.468 29.7868 113.276L29.7748 112.976V110.468C29.7748 109.988 29.6748 109.644 29.4748 109.436C29.2828 109.228 28.9508 109.124 28.4788 109.124C27.6068 109.124 27.1708 109.46 27.1708 110.132C27.1708 110.18 27.1428 110.204 27.0868 110.204H26.6068C26.5588 110.204 26.5308 110.16 26.5228 110.072C26.4988 109.608 26.6588 109.24 27.0028 108.968C27.3468 108.696 27.8468 108.56 28.5028 108.56C29.1508 108.552 29.6308 108.704 29.9428 109.016C30.2548 109.32 30.4108 109.8 30.4108 110.456V113.108C30.4108 113.364 30.4148 113.6 30.4228 113.816C30.4388 114.032 30.4588 114.232 30.4828 114.416C30.4908 114.472 30.4628 114.5 30.3988 114.5H29.9668ZM27.6268 114.644C27.1628 114.644 26.8108 114.508 26.5708 114.236C26.3388 113.964 26.2228 113.576 26.2228 113.072C26.2228 112.688 26.2988 112.372 26.4508 112.124C26.6028 111.868 26.8468 111.668 27.1828 111.524C27.5188 111.38 27.9588 111.284 28.5028 111.236L29.9068 111.08V111.584L28.4908 111.728C27.8908 111.792 27.4668 111.924 27.2188 112.124C26.9788 112.316 26.8588 112.62 26.8588 113.036C26.8588 113.372 26.9308 113.632 27.0748 113.816C27.2268 113.992 27.4588 114.08 27.7708 114.08C28.0828 114.08 28.4108 113.964 28.7548 113.732C29.1068 113.5 29.5028 113.136 29.9428 112.64V113.252C29.6388 113.588 29.3548 113.86 29.0908 114.068C28.8348 114.268 28.5868 114.412 28.3468 114.5C28.1148 114.596 27.8748 114.644 27.6268 114.644ZM34.4699 116.864C33.5499 116.864 32.8939 116.74 32.5019 116.492C32.1099 116.252 31.9139 115.876 31.9139 115.364C31.9139 114.98 32.0019 114.668 32.1779 114.428C32.3619 114.188 32.6379 113.992 33.0059 113.84L33.5819 114.044C33.2299 114.148 32.9739 114.296 32.8139 114.488C32.6539 114.68 32.5739 114.936 32.5739 115.256C32.5739 115.648 32.7179 115.92 33.0059 116.072C33.2939 116.232 33.7899 116.312 34.4939 116.312C35.2299 116.312 35.7379 116.228 36.0179 116.06C36.2979 115.892 36.4379 115.604 36.4379 115.196C36.4379 114.868 36.3579 114.636 36.1979 114.5C36.0459 114.356 35.7859 114.272 35.4179 114.248L33.3539 114.128C33.0499 114.112 32.8059 114.02 32.6219 113.852C32.4459 113.676 32.3579 113.432 32.3579 113.12C32.3579 112.952 32.3859 112.804 32.4419 112.676C32.5059 112.548 32.5979 112.428 32.7179 112.316C32.8379 112.196 32.9859 112.076 33.1619 111.956L33.5939 112.22C33.3859 112.316 33.2259 112.428 33.1139 112.556C33.0099 112.684 32.9579 112.836 32.9579 113.012C32.9579 113.172 33.0099 113.3 33.1139 113.396C33.2259 113.492 33.4299 113.552 33.7259 113.576L35.6099 113.696C36.1059 113.728 36.4699 113.864 36.7019 114.104C36.9419 114.336 37.0619 114.708 37.0619 115.22C37.0619 115.804 36.8619 116.224 36.4619 116.48C36.0619 116.736 35.3979 116.864 34.4699 116.864ZM34.5659 112.484C33.8539 112.484 33.3219 112.32 32.9699 111.992C32.6179 111.664 32.4419 111.172 32.4419 110.516C32.4419 109.86 32.6179 109.372 32.9699 109.052C33.3299 108.724 33.8699 108.56 34.5899 108.56C35.2939 108.56 35.8219 108.724 36.1739 109.052C36.5259 109.38 36.7019 109.872 36.7019 110.528C36.7019 111.184 36.5259 111.676 36.1739 112.004C35.8219 112.324 35.2859 112.484 34.5659 112.484ZM34.5659 111.92C35.0939 111.92 35.4739 111.812 35.7059 111.596C35.9459 111.372 36.0659 111.016 36.0659 110.528C36.0659 110.032 35.9459 109.676 35.7059 109.46C35.4659 109.236 35.0859 109.124 34.5659 109.124C34.0459 109.124 33.6659 109.236 33.4259 109.46C33.1939 109.676 33.0779 110.032 33.0779 110.528C33.0779 111.016 33.1939 111.372 33.4259 111.596C33.6659 111.812 34.0459 111.92 34.5659 111.92ZM35.8739 109.028L35.3339 108.836C35.3739 108.508 35.4179 108.208 35.4659 107.936C35.5219 107.656 35.5779 107.424 35.6339 107.24C35.6499 107.176 35.6859 107.144 35.7419 107.144H36.1979C36.2539 107.144 36.2739 107.172 36.2579 107.228C36.1859 107.452 36.1179 107.708 36.0539 107.996C35.9979 108.284 35.9379 108.628 35.8739 109.028ZM44.7558 114.5C44.7318 114.5 44.7118 114.492 44.6958 114.476C44.6798 114.452 44.6678 114.424 44.6598 114.392C44.6518 114.264 44.6358 114.096 44.6118 113.888C44.5958 113.672 44.5838 113.468 44.5758 113.276L44.5638 112.976V110.468C44.5638 109.988 44.4638 109.644 44.2638 109.436C44.0718 109.228 43.7398 109.124 43.2678 109.124C42.3958 109.124 41.9598 109.46 41.9598 110.132C41.9598 110.18 41.9318 110.204 41.8758 110.204H41.3958C41.3478 110.204 41.3198 110.16 41.3118 110.072C41.2878 109.608 41.4478 109.24 41.7918 108.968C42.1358 108.696 42.6358 108.56 43.2918 108.56C43.9398 108.552 44.4198 108.704 44.7318 109.016C45.0438 109.32 45.1998 109.8 45.1998 110.456V113.108C45.1998 113.364 45.2038 113.6 45.2118 113.816C45.2278 114.032 45.2478 114.232 45.2718 114.416C45.2798 114.472 45.2518 114.5 45.1878 114.5H44.7558ZM42.4158 114.644C41.9518 114.644 41.5998 114.508 41.3598 114.236C41.1278 113.964 41.0118 113.576 41.0118 113.072C41.0118 112.688 41.0878 112.372 41.2398 112.124C41.3918 111.868 41.6358 111.668 41.9718 111.524C42.3078 111.38 42.7478 111.284 43.2918 111.236L44.6958 111.08V111.584L43.2798 111.728C42.6798 111.792 42.2558 111.924 42.0078 112.124C41.7678 112.316 41.6478 112.62 41.6478 113.036C41.6478 113.372 41.7198 113.632 41.8638 113.816C42.0158 113.992 42.2478 114.08 42.5598 114.08C42.8718 114.08 43.1998 113.964 43.5438 113.732C43.8958 113.5 44.2918 113.136 44.7318 112.64V113.252C44.4278 113.588 44.1438 113.86 43.8798 114.068C43.6238 114.268 43.3758 114.412 43.1358 114.5C42.9038 114.596 42.6638 114.644 42.4158 114.644ZM51.3229 114.5C51.2749 114.5 51.2509 114.472 51.2509 114.416V110.576C51.2509 110.08 51.1509 109.716 50.9509 109.484C50.7589 109.244 50.4589 109.124 50.0509 109.124C49.6669 109.124 49.2909 109.24 48.9229 109.472C48.5629 109.704 48.1629 110.048 47.7229 110.504V109.892C48.0029 109.588 48.2749 109.34 48.5389 109.148C48.8109 108.948 49.0789 108.8 49.3429 108.704C49.6149 108.608 49.8949 108.56 50.1829 108.56C50.7349 108.56 51.1549 108.72 51.4429 109.04C51.7389 109.36 51.8869 109.86 51.8869 110.54V114.416C51.8869 114.472 51.8589 114.5 51.8029 114.5H51.3229ZM47.3029 114.5C47.2469 114.5 47.2189 114.472 47.2189 114.416V110.096C47.2189 109.888 47.2109 109.664 47.1949 109.424C47.1789 109.184 47.1629 108.976 47.1469 108.8C47.1389 108.736 47.1669 108.704 47.2309 108.704H47.6749C47.7069 108.704 47.7269 108.708 47.7349 108.716C47.7509 108.724 47.7629 108.744 47.7709 108.776C47.7869 108.88 47.7989 109 47.8069 109.136C47.8229 109.272 47.8349 109.416 47.8429 109.568C47.8509 109.712 47.8549 109.844 47.8549 109.964V110.18V114.416C47.8549 114.472 47.8309 114.5 47.7829 114.5H47.3029ZM55.4466 114.644C54.8786 114.644 54.4506 114.472 54.1626 114.128C53.8746 113.776 53.7306 113.252 53.7306 112.556V110.816C53.7306 110.08 53.9186 109.52 54.2946 109.136C54.6786 108.752 55.2026 108.56 55.8666 108.56C56.2106 108.56 56.5546 108.608 56.8986 108.704C57.2426 108.8 57.5466 108.928 57.8106 109.088L57.8466 109.664C57.5266 109.488 57.2066 109.356 56.8866 109.268C56.5746 109.172 56.2666 109.124 55.9626 109.124C55.4586 109.124 55.0666 109.268 54.7866 109.556C54.5066 109.844 54.3666 110.284 54.3666 110.876V112.58C54.3666 113.084 54.4666 113.46 54.6666 113.708C54.8666 113.948 55.1746 114.068 55.5906 114.068C55.8386 114.068 56.0786 114.02 56.3106 113.924C56.5506 113.82 56.7906 113.668 57.0306 113.468C57.2786 113.26 57.5466 113 57.8346 112.688L57.8226 113.312C57.5426 113.616 57.2746 113.868 57.0186 114.068C56.7706 114.26 56.5186 114.404 56.2626 114.5C56.0066 114.596 55.7346 114.644 55.4466 114.644ZM57.8946 114.5C57.8706 114.5 57.8466 114.492 57.8226 114.476C57.8066 114.46 57.7986 114.44 57.7986 114.416C57.7826 114.248 57.7626 114.068 57.7386 113.876C57.7226 113.676 57.7186 113.492 57.7266 113.324L57.6906 112.988V106.388C57.6906 106.332 57.7186 106.304 57.7746 106.304H58.2426C58.2986 106.304 58.3266 106.332 58.3266 106.388V113.156C58.3266 113.284 58.3306 113.424 58.3386 113.576C58.3466 113.728 58.3546 113.876 58.3626 114.02C58.3786 114.156 58.3906 114.28 58.3986 114.392C58.4146 114.464 58.3866 114.5 58.3146 114.5H57.8946ZM64.7044 114.644C64.1364 114.644 63.7084 114.472 63.4204 114.128C63.1324 113.776 62.9884 113.252 62.9884 112.556V110.816C62.9884 110.08 63.1764 109.52 63.5524 109.136C63.9364 108.752 64.4604 108.56 65.1244 108.56C65.4684 108.56 65.8124 108.608 66.1564 108.704C66.5004 108.8 66.8044 108.928 67.0684 109.088L67.1044 109.664C66.7844 109.488 66.4644 109.356 66.1444 109.268C65.8324 109.172 65.5244 109.124 65.2204 109.124C64.7164 109.124 64.3244 109.268 64.0444 109.556C63.7644 109.844 63.6244 110.284 63.6244 110.876V112.58C63.6244 113.084 63.7244 113.46 63.9244 113.708C64.1244 113.948 64.4324 114.068 64.8484 114.068C65.0964 114.068 65.3364 114.02 65.5684 113.924C65.8084 113.82 66.0484 113.668 66.2884 113.468C66.5364 113.26 66.8044 113 67.0924 112.688L67.0804 113.312C66.8004 113.616 66.5324 113.868 66.2764 114.068C66.0284 114.26 65.7764 114.404 65.5204 114.5C65.2644 114.596 64.9924 114.644 64.7044 114.644ZM67.1524 114.5C67.1284 114.5 67.1044 114.492 67.0804 114.476C67.0644 114.46 67.0564 114.44 67.0564 114.416C67.0404 114.248 67.0204 114.068 66.9964 113.876C66.9804 113.676 66.9764 113.492 66.9844 113.324L66.9484 112.988V106.388C66.9484 106.332 66.9764 106.304 67.0324 106.304H67.5004C67.5564 106.304 67.5844 106.332 67.5844 106.388V113.156C67.5844 113.284 67.5884 113.424 67.5964 113.576C67.6044 113.728 67.6124 113.876 67.6204 114.02C67.6364 114.156 67.6484 114.28 67.6564 114.392C67.6724 114.464 67.6444 114.5 67.5724 114.5H67.1524ZM69.6975 114.5C69.6415 114.5 69.6135 114.472 69.6135 114.416V110.072C69.6135 109.848 69.6055 109.632 69.5895 109.424C69.5815 109.208 69.5655 108.996 69.5415 108.788C69.5335 108.732 69.5615 108.704 69.6255 108.704H70.0695C70.1015 108.704 70.1215 108.708 70.1295 108.716C70.1455 108.724 70.1575 108.744 70.1655 108.776C70.1895 108.952 70.2055 109.14 70.2135 109.34C70.2295 109.54 70.2375 109.732 70.2375 109.916L70.2495 110.312V114.416C70.2495 114.472 70.2255 114.5 70.1775 114.5H69.6975ZM70.1295 110.612L70.1175 109.964C70.2855 109.732 70.4815 109.508 70.7055 109.292C70.9295 109.076 71.1655 108.9 71.4135 108.764C71.6695 108.628 71.9255 108.56 72.1815 108.56C72.3415 108.56 72.4615 108.572 72.5415 108.596C72.5735 108.604 72.5935 108.616 72.6015 108.632C72.6095 108.64 72.6135 108.656 72.6135 108.68C72.6295 108.784 72.6335 108.884 72.6255 108.98C72.6255 109.076 72.6175 109.172 72.6015 109.268C72.6015 109.3 72.5895 109.324 72.5655 109.34C72.5495 109.348 72.5215 109.348 72.4815 109.34C72.4335 109.332 72.3775 109.324 72.3135 109.316C72.2495 109.308 72.1735 109.304 72.0855 109.304C71.8455 109.304 71.6055 109.364 71.3655 109.484C71.1335 109.604 70.9135 109.764 70.7055 109.964C70.4975 110.156 70.3055 110.372 70.1295 110.612ZM75.875 114.644C75.123 114.644 74.543 114.456 74.135 114.08C73.727 113.696 73.523 113.136 73.523 112.4V110.804C73.523 110.068 73.727 109.512 74.135 109.136C74.543 108.752 75.123 108.56 75.875 108.56C76.635 108.56 77.219 108.752 77.627 109.136C78.035 109.512 78.239 110.068 78.239 110.804V112.4C78.239 113.128 78.035 113.684 77.627 114.068C77.219 114.452 76.635 114.644 75.875 114.644ZM75.875 114.068C76.451 114.068 76.883 113.92 77.171 113.624C77.459 113.328 77.603 112.896 77.603 112.328V110.876C77.603 110.308 77.459 109.876 77.171 109.58C76.883 109.276 76.451 109.124 75.875 109.124C75.307 109.124 74.879 109.276 74.591 109.58C74.303 109.876 74.159 110.308 74.159 110.876V112.328C74.159 112.896 74.303 113.328 74.591 113.624C74.879 113.92 75.307 114.068 75.875 114.068ZM82.4786 114.644C82.1826 114.644 81.8626 114.6 81.5186 114.512C81.1826 114.424 80.8746 114.3 80.5946 114.14L80.5706 113.576C80.8586 113.728 81.1546 113.848 81.4586 113.936C81.7706 114.024 82.0746 114.068 82.3706 114.068C82.8986 114.068 83.3026 113.916 83.5826 113.612C83.8626 113.308 84.0026 112.88 84.0026 112.328V110.684C84.0026 110.148 83.9026 109.756 83.7026 109.508C83.5026 109.252 83.1986 109.124 82.7906 109.124C82.4626 109.124 82.1226 109.224 81.7706 109.424C81.4186 109.624 81.0146 109.956 80.5586 110.42V109.784C80.8386 109.496 81.1066 109.264 81.3626 109.088C81.6266 108.904 81.8866 108.772 82.1426 108.692C82.3986 108.604 82.6626 108.56 82.9346 108.56C83.5026 108.56 83.9266 108.732 84.2066 109.076C84.4946 109.412 84.6386 109.936 84.6386 110.648V112.388C84.6386 113.1 84.4506 113.656 84.0746 114.056C83.6986 114.448 83.1666 114.644 82.4786 114.644ZM80.1506 116.72C80.0946 116.72 80.0666 116.692 80.0666 116.636V110.036C80.0666 109.852 80.0586 109.648 80.0426 109.424C80.0346 109.2 80.0186 108.988 79.9946 108.788C79.9946 108.732 80.0226 108.704 80.0786 108.704H80.5226C80.5786 108.704 80.6106 108.728 80.6186 108.776C80.6346 108.88 80.6466 108.996 80.6546 109.124C80.6706 109.244 80.6786 109.364 80.6786 109.484C80.6866 109.596 80.6906 109.696 80.6906 109.784L80.7026 110.132V116.636C80.7026 116.692 80.6786 116.72 80.6306 116.72H80.1506ZM93.3933 114.5C93.3453 114.5 93.3213 114.472 93.3213 114.416V110.576C93.3213 110.08 93.2213 109.716 93.0213 109.484C92.8293 109.244 92.5333 109.124 92.1333 109.124C91.7413 109.124 91.3573 109.244 90.9813 109.484C90.6053 109.716 90.2133 110.056 89.8053 110.504L89.8173 109.88C90.0893 109.584 90.3573 109.34 90.6213 109.148C90.8853 108.948 91.1533 108.8 91.4253 108.704C91.6973 108.608 91.9773 108.56 92.2653 108.56C92.8173 108.56 93.2373 108.72 93.5253 109.04C93.8133 109.36 93.9573 109.86 93.9573 110.54V114.416C93.9573 114.472 93.9293 114.5 93.8733 114.5H93.3933ZM89.3733 114.5C89.3173 114.5 89.2893 114.472 89.2893 114.416V106.388C89.2893 106.332 89.3173 106.304 89.3733 106.304H89.8533C89.9013 106.304 89.9253 106.332 89.9253 106.388V114.416C89.9253 114.472 89.9013 114.5 89.8533 114.5H89.3733ZM98.0809 114.644C97.3289 114.644 96.7569 114.464 96.3649 114.104C95.9729 113.744 95.7769 113.216 95.7769 112.52V110.828C95.7769 110.084 95.9689 109.52 96.3529 109.136C96.7369 108.752 97.3009 108.56 98.0449 108.56C98.7969 108.56 99.3609 108.752 99.7369 109.136C100.121 109.512 100.313 110.068 100.313 110.804V111.608C100.313 111.656 100.289 111.68 100.241 111.68H96.4129V112.352C96.4129 112.936 96.5489 113.368 96.8209 113.648C97.1009 113.928 97.5289 114.068 98.1049 114.068C98.5769 114.068 98.9369 113.98 99.1849 113.804C99.4329 113.62 99.5569 113.364 99.5569 113.036C99.5569 112.98 99.5889 112.952 99.6529 112.952H100.121C100.169 112.952 100.197 112.976 100.205 113.024C100.221 113.528 100.041 113.924 99.6649 114.212C99.2969 114.5 98.7689 114.644 98.0809 114.644ZM96.4129 111.128H99.6769V110.864C99.6769 110.28 99.5409 109.844 99.2689 109.556C98.9969 109.268 98.5929 109.124 98.0569 109.124C97.5049 109.124 97.0929 109.272 96.8209 109.568C96.5489 109.856 96.4129 110.288 96.4129 110.864V111.128ZM102.194 114.5C102.138 114.5 102.11 114.472 102.11 114.416V110.072C102.11 109.848 102.102 109.632 102.086 109.424C102.078 109.208 102.062 108.996 102.038 108.788C102.03 108.732 102.058 108.704 102.122 108.704H102.566C102.598 108.704 102.618 108.708 102.626 108.716C102.642 108.724 102.654 108.744 102.662 108.776C102.686 108.952 102.702 109.14 102.71 109.34C102.726 109.54 102.734 109.732 102.734 109.916L102.746 110.312V114.416C102.746 114.472 102.722 114.5 102.674 114.5H102.194ZM102.626 110.612L102.614 109.964C102.782 109.732 102.978 109.508 103.202 109.292C103.426 109.076 103.662 108.9 103.91 108.764C104.166 108.628 104.422 108.56 104.678 108.56C104.838 108.56 104.958 108.572 105.038 108.596C105.07 108.604 105.09 108.616 105.098 108.632C105.106 108.64 105.11 108.656 105.11 108.68C105.126 108.784 105.13 108.884 105.122 108.98C105.122 109.076 105.114 109.172 105.098 109.268C105.098 109.3 105.086 109.324 105.062 109.34C105.046 109.348 105.018 109.348 104.978 109.34C104.93 109.332 104.874 109.324 104.81 109.316C104.746 109.308 104.67 109.304 104.582 109.304C104.342 109.304 104.102 109.364 103.862 109.484C103.63 109.604 103.41 109.764 103.202 109.964C102.994 110.156 102.802 110.372 102.626 110.612ZM108.323 114.644C107.571 114.644 106.999 114.464 106.607 114.104C106.215 113.744 106.019 113.216 106.019 112.52V110.828C106.019 110.084 106.211 109.52 106.595 109.136C106.979 108.752 107.543 108.56 108.287 108.56C109.039 108.56 109.603 108.752 109.979 109.136C110.363 109.512 110.555 110.068 110.555 110.804V111.608C110.555 111.656 110.531 111.68 110.483 111.68H106.655V112.352C106.655 112.936 106.791 113.368 107.063 113.648C107.343 113.928 107.771 114.068 108.347 114.068C108.819 114.068 109.179 113.98 109.427 113.804C109.675 113.62 109.799 113.364 109.799 113.036C109.799 112.98 109.831 112.952 109.895 112.952H110.363C110.411 112.952 110.439 112.976 110.447 113.024C110.463 113.528 110.283 113.924 109.907 114.212C109.539 114.5 109.011 114.644 108.323 114.644ZM106.655 111.128H109.919V110.864C109.919 110.28 109.783 109.844 109.511 109.556C109.239 109.268 108.835 109.124 108.299 109.124C107.747 109.124 107.335 109.272 107.063 109.568C106.791 109.856 106.655 110.288 106.655 110.864V111.128Z" fill="#002912"/>
</svg>
