<svg width="80" height="81" viewBox="0 0 80 81" fill="none" xmlns="http://www.w3.org/2000/svg">
<path opacity="0.2" d="M46 16.5C42.8 16.5 40 19.3 40 22.5C40 25.7 42.8 28.5 46 28.5C49.2 28.5 52 25.7 52 22.5C52 19.3 49.2 16.5 46 16.5ZM68 0.5H12C5.2 0.5 0 5.7 0 12.5V68.5C0 75.3 5.2 80.5 12 80.5H68C74.8 80.5 80 75.3 80 68.5V12.5C80 5.7 74.8 0.5 68 0.5ZM72 48.1L64.4 40.5C59.6 36.1 52 36.1 47.6 40.5L44 44.1L32.4 32.5C27.6 28.1 20 28.1 15.6 32.5L8 40.1V12.5C8 10.1 9.6 8.5 12 8.5H68C70.4 8.5 72 10.1 72 12.5V48.1Z" fill="#ACB4B0"/>
</svg>
